<svg xmlns="http://www.w3.org/2000/svg" class="img-fluid" viewBox="0 0 5120 5120">
  <path fill="#F8A128" d="M1130 4871a545 545 0 0 1-369-381c-14-58-14-252 0-310a544 544 0 0 1 386-385c76-20 251-20 328 0a544 544 0 0 1 313 227c65 105 77 153 77 313 0 164-12 212-82 317a532 532 0 0 1-308 223c-84 21-273 19-345-4zm283-141c189-59 329-269 296-446s-175-320-352-355c-188-38-417 139-455 351-33 178 99 383 287 447 82 28 140 29 224 3zm2474 136c-90-32-155-75-222-148-102-110-139-214-139-388a521 521 0 0 1 168-408 545 545 0 0 1 393-142c171 0 302 50 408 156 68 68 126 173 144 262 16 77 13 225-5 296a537 537 0 0 1-373 380c-38 11-93 16-180 16-107 0-136-4-194-24zm358-155c163-80 269-264 244-422-34-215-265-396-459-359-213 40-386 269-350 463a484 484 0 0 0 221 308c77 39 120 49 201 46 62-3 89-10 143-36z" style="transform:none"/>
  <path fill="#858583" d="M1180 4671c-92-30-169-97-208-181-34-72-42-201-18-283 45-154 195-247 376-234 114 8 165 31 236 101 76 77 94 124 94 252 0 122-24 189-92 257-73 73-121 91-253 94-60 1-121-1-135-6zm189-220c33-18 81-90 81-123 0-64-87-148-153-148-35 0-110 53-131 93-34 66 1 144 85 185 41 21 69 19 118-7zm2553 207a330 330 0 0 1-181-189c-29-87-29-207 1-286 56-151 229-236 413-204 120 21 203 80 257 183 18 35 23 64 26 148 3 90 1 113-19 165a330 330 0 0 1-182 183c-80 30-238 30-315 0zm204-197c47-21 91-73 100-118 11-57-48-134-120-155-34-11-43-9-83 12-47 25-93 89-93 129 0 46 44 102 105 134 38 20 42 20 91-2z" style="transform:none"/>
  <g fill="#FF2A23" style="transform:none">
    <path d="M3058 4367c5-214 5-214-19-220-38-10-129-8-129 3 0 6-9 10-20 10-28 0-104 31-113 47-4 7-17 13-27 13-11 0-20 7-20 15s-6 15-14 15-16 7-20 15c-3 8-12 15-21 15-8 0-15 5-15 10 0 6-7 10-15 10s-15 5-15 10c0 6-7 10-15 10s-15 4-15 10c0 5-12 13-27 16-16 4-31 11-34 16-3 4-32 15-64 24-33 8-62 19-65 24-10 16-197 40-308 40-97 0-103-1-111-22-5-13-26-43-47-67-32-37-41-58-55-126a602 602 0 0 0-326-428c-66-33-78-51-40-61 66-16 320-28 491-22 168 6 188 5 183-8-10-26 19-19 70 18 87 62 186 82 259 51 20-8 38-24 41-35 6-22 33-28 33-6 0 9 19 15 61 20 58 6 64 4 99-24 71-56 156-88 265-101 55-6 116-8 136-5 36 6 36 6 42-77 4-45 7-163 7-263s3-209 6-243c6-56 9-61 30-61 17 0 24-6 24-20 0-18 7-20 74-20 82 0 106 6 106 25 0 8 25 14 73 19 108 10 228 72 347 180 43 38 43 38 37 108-4 48-14 83-31 112-24 42-24 42 204 95l249 58c18 5 21 1 21-25 0-29 127-822 133-828 5-6 331-24 423-24 121 0 154 7 154 32 0 19-95 514-106 550-3 11-28 22-77 33-80 18-196 70-262 115-24 17-51 30-59 30-9 0-16 6-16 14 0 7-22 34-49 59-26 25-51 52-54 61-4 9-16 16-27 16-14 0-20 7-20 21 0 19-34 86-50 99-3 3-12 20-20 39-13 33-13 33-74 25-34-5-108-9-166-9-84 0-119 5-173 24a708 708 0 0 0-262 174 736 736 0 0 0-135 266c-15 65-15 178-1 241 6 25 11 62 11 83 0 37 0 37-234 37s-234 0-228-213zM180 4545c0-8 6-15 13-15 8 0 18-24 26-62 11-54 19-68 69-117 63-63 179-127 327-181 50-19 99-40 109-49 18-16 19-14 11 49-11 86-11 250-1 328 9 62 9 62-273 62-243 0-281-2-281-15z"/>
    <path d="M2315 3650c-22-10-51-30-65-45-25-27-25-27 12-59 20-18 59-44 86-59 61-33 184-54 225-38 27 10 27 11 27 109 0 99 0 99-37 106-80 13-206 6-248-14z"/>
  </g>
  <path fill="#666765" d="M360 4835c0-13-22-15-140-15-140 0-140 0-140-129 0-71 3-136 6-145 5-14 28-16 155-16 149 0 149 0 149 160 0 136-2 160-15 160-8 0-15-7-15-15zm1555-49c-18-13-15-18 43-110 34-53 62-101 62-106 0-15-140-13-141 3 0 6-4 3-9-8-12-28-12-85 0-85 6 0 10-18 10-40s3-40 8-40c4 0 7-30 7-67 0-56 3-68 18-71 9-2 17 2 17 8 0 7 18 33 41 58 23 26 45 57 50 70s17 22 29 22c15 0 21 9 26 39 3 21 9 43 13 49 4 7 172 11 499 13 387 3 492 6 492 16s47 13 205 13c176 0 205-2 205-15 0-8 9-15 20-15s20 6 20 13c0 24 71 149 105 185 19 20 35 47 35 60 0 22 0 22-868 22-719 0-871-2-887-14zm2765-460c0-36-4-68-10-71-5-3-10-24-10-46 0-21-4-39-9-39s-13-15-16-32c-10-47-48-117-84-158-21-24-31-45-31-69 0-34 0-34 161-28 89 3 163 8 165 10 8 8-27 302-41 354-11 38-26 61-55 86-22 19-40 39-40 45 0 7-7 12-15 12-12 0-15-14-15-64zm-326-721c3-8 4-15 3-15-11 0-562-132-566-135-2-3 3-13 11-22 40-47 68-112 75-177 8-68 8-68 166 59 87 70 160 125 161 123 1-1 28-144 59-316s64-326 72-342c20-39 79-77 133-86 37-6 42-4 42 12 0 11-29 199-65 418s-65 405-65 413c0 9 6 13 15 9 16-6 19 12 9 52-5 15-14 22-31 22-18 0-24-4-19-15z" style="transform:none"/>
  <path fill="#CF1C35" d="M2473 4553c-456-4-412 3-428-68l-11-47c-5-16 3-18 80-18 57 0 86-4 86-11 0-8 14-10 40-6 22 3 43 1 46-5 3-5 17-7 30-4 15 4 24 2 24-5 0-6 9-9 20-6 10 3 20 1 22-4 2-4 30-15 62-23 33-9 62-20 65-24 3-5 19-12 34-16s25-11 22-16c-3-6 3-10 15-10s18-4 15-10c-3-5 3-10 15-10s19-4 15-9c-3-5 5-11 17-13 13-2 22-9 21-16-2-6 6-12 17-12s20-6 20-14 10-16 23-18c12-2 21-8 20-14-1-5 18-16 43-23 24-7 44-18 44-23 0-6 11-8 25-6 14 3 25 1 25-3 0-5 4-9 9-9 6 0 10 92 11 225 0 124-3 224-7 223-5-2-193-4-420-5zm47-753c0-28 2-30 40-30 57 0 50 25-13 49-26 10-27 9-27-19zm-220 3c-27-11-100-64-100-73 0-6 14-10 30-10 17 0 30 4 30 8s16 14 35 21c27 9 35 18 35 37 0 25-4 27-30 17zm1994-113c0-11 4-20 10-20 5 0 15-8 22-17 12-16 13-14 14 20 0 32-3 37-23 37-16 0-23-6-23-20zm-1804-35c0-8 7-15 15-15s15-4 15-10c0-5 13-8 30-7 33 2 42 30 14 41-31 12-74 7-74-9zm-172-2c-11-3-18-14-18-28 0-25 17-26 49-1 8 6 15 10 15 8 2-7 36 11 36 19 0 9-51 10-82 2zm2052-78c0-8 9-19 21-25 11-7 18-17 16-24-3-6 6-17 19-23 22-10 24-9 24 18 0 19-5 29-15 29-8 0-15 9-15 20 0 15-7 20-25 20-15 0-25-6-25-15zm133-150c7-14 19-25 28-25 8 0 20-5 27-12 9-9 12-5 12 19 0 32-14 43-55 43-21 0-22-2-12-25zm227-120c0-16 42-43 64-42 29 2 36 31 10 41-19 7-74 8-74 1zm130-40c0-8 6-15 14-15s16-5 18-11c5-15 58 0 58 16s-22 25-61 25c-19 0-29-5-29-15zm-1522-282c-60-3-68-6-68-23 0-18 7-20 75-20 73 0 75 1 75 25 0 14-3 24-7 23l-75-5z" style="transform:none"/>
  <path fill="#B50D22" d="M360 4690c0-160 0-160 176-160 156 0 175-2 170-16-4-12 0-15 17-12 18 2 23 10 25 46 3 39-10 57-21 30-3-7-6 44-6 114-1 69-4 133-7 142-5 14-31 16-180 16-174 0-174 0-174-160zm2513-138c-16-10-5-52 13-52 9 0 14 11 14 30 0 31-6 35-27 22zm-7-344c-10-38-7-69 8-84 23-23 26-17 26 46 0 44-4 60-14 60-7 0-16-10-20-22zm1599-319c-52-43-136-91-197-112-10-4-18-15-18-26 0-12 5-18 13-16 7 3 25-19 44-53 56-98 66-113 133-185 78-84 163-146 262-191 71-33 213-71 240-64 11 2 3 71-41 341-55 338-55 338-206 331-139-6-149-6-136 9 12 15 11 17-10 16-13 0-51-22-84-50zm-2118-69c-16-5-34-13-41-19s-16-8-19-4c-4 3-7 2-7-3s-16-18-36-29c-68-36-76-116-17-185 26-31 26-31 57-1 17 16 48 37 68 45 46 20 159 20 211 2 38-14 38-14 35 77-3 81-5 92-22 95-11 2-26 10-34 18-15 16-147 18-195 4zm1048-840c-3-5-33-10-66-10-55 0-59-1-59-24 0-21-6-24-52-30-126-16-160-41-162-119-1-32 5-44 29-64 29-25 32-26 140-20 115 6 275 41 318 70 43 28 41 102-3 124-14 7-40 13-57 13-31 0-33 2-33 35 0 30-3 35-24 35-14 0-28-4-31-10z" style="transform:none"/>
  <g fill="#4C4038" style="transform:none">
    <path d="M1152 4935a607 607 0 0 1-448-433c-19-72-21-241-4-313a656 656 0 0 1 320-402c102-50 177-67 290-67 227 0 401 89 516 261 71 107 96 190 100 332 2 64 0 117-4 117s-7 17-8 37c0 20-5 38-11 40s-8 13-6 25c3 11 2 23-3 27-5 3-22 33-39 66-19 38-60 90-110 141a577 577 0 0 1-295 168c-79 19-213 19-298 1zm293-90a532 532 0 0 0 308-223c66-100 82-156 82-287 0-128-16-184-77-283a538 538 0 0 0-700-181 552 552 0 0 0-267 339c-13 58-13 192 0 250a545 545 0 0 0 369 381c70 23 205 24 285 4z"/>
    <path d="M1159 4757a446 446 0 0 1 36-851c158-42 319 5 430 126a443 443 0 0 1-466 725zm283-135a326 326 0 0 0 188-296c0-96-24-151-94-222a315 315 0 0 0-316-90c-323 83-331 522-10 627 46 15 181 4 232-19z"/>
    <path d="M1240 4499c-80-33-120-93-120-178 0-132 147-214 270-151 91 46 121 175 60 258-16 23-43 48-60 57-40 20-118 28-150 14zm2674 431c-80-21-176-66-221-104-17-14-36-26-42-26s-11-3-11-7c0-5-16-25-35-45a635 635 0 0 1-121-238c-21-80-23-244-5-320 19-82 84-208 136-267a651 651 0 0 1 714-163c77 30 196 111 224 152 8 13 25 34 37 48 28 32 81 136 73 144-4 3-1 6 6 6s11 6 8 14-2 16 4 18c5 2 11 20 13 41s6 40 10 44c11 12 6 167-9 237a639 639 0 0 1-460 471c-82 21-232 19-321-5zm317-86a537 537 0 0 0 373-380 530 530 0 0 0-517-654 528 528 0 0 0-530 520c0 143 43 256 138 358a495 495 0 0 0 386 172c59 0 116-6 150-16z"/>
    <path d="M3955 4767a450 450 0 0 1-306-499 439 439 0 0 1 742-248 447 447 0 0 1-117 721c-63 31-77 34-174 36-67 2-120-2-145-10zm252-139c78-29 152-103 182-183 19-49 22-74 19-135-9-158-113-270-276-300a341 341 0 0 0-306 112 319 319 0 0 0 20 433c67 67 132 94 231 94 51 1 90-5 130-21z"/>
    <path d="M4005 4493c-74-38-105-88-105-164 0-37 7-64 24-93 69-118 249-114 317 7 31 55 24 141-15 192-51 67-154 94-221 58z"/>
  </g>
  <path fill="#8C1D0B" d="M2877 4553c-9-8-9-406-1-427 5-13 22-16 88-16 137 0 126-17 126 194 0 99-3 198-6 219-7 37-7 37-104 37-53 0-100-3-103-7z" style="transform:none"/>
</svg>